<svg width="67" height="66" viewBox="0 0 67 66" fill="none" xmlns="http://www.w3.org/2000/svg">
<g clip-path="url(#clip0_1_59)">
<rect width="67" height="66" fill="white"/>
<path d="M67 0H0V66H67V0Z" fill="#F1D785"/>
<path fill-rule="evenodd" clip-rule="evenodd" d="M6.87914 11C6.31207 11 5.98173 11.6309 6.31051 12.0861L30.6059 45.7209C30.6899 45.8373 30.7351 45.9767 30.7351 46.1197V54.3125C30.7351 54.6923 30.4227 55 30.0372 55H11.8576C11.4721 55 11.1597 55.3077 11.1597 55.6875V59.8125C11.1597 60.1923 11.4721 60.5 11.8576 60.5H33.5268H36.3185H55.196C55.5815 60.5 55.8939 60.1923 55.8939 59.8125V55.6875C55.8939 55.3077 55.5815 55 55.196 55H37.0164C36.6309 55 36.3185 54.6923 36.3185 54.3125V46.1197C36.3185 45.9767 36.3637 45.8373 36.4477 45.7209L60.743 12.0861C61.0719 11.6309 60.7414 11 60.1744 11H55.0349C54.8091 11 54.5972 11.1077 54.4662 11.2889L34.0955 39.4908C33.8171 39.8761 33.2365 39.8761 32.9581 39.4908L12.5872 11.2889C12.4562 11.1077 12.2444 11 12.0185 11H6.87914Z" fill="#C34C40"/>
<path fill-rule="evenodd" clip-rule="evenodd" d="M48.8542 8.25C48.8542 8.62969 48.5418 8.9375 48.1562 8.9375H43.2708C42.8853 8.9375 42.5729 9.24531 42.5729 9.625V12.375C42.5729 12.7547 42.8853 13.0625 43.2708 13.0625H48.8542H50.3418C50.8991 13.0625 51.2315 13.6745 50.9225 14.1314L49.7846 15.8125L49.0613 16.8814C48.9318 17.0726 48.714 17.1875 48.4806 17.1875H43.2708C42.8853 17.1875 42.5729 17.4953 42.5729 17.875V24.0625C42.5729 24.4422 42.2605 24.75 41.875 24.75H39.0833C38.6978 24.75 38.3854 24.4422 38.3854 24.0625V17.875C38.3854 17.4953 38.073 17.1875 37.6875 17.1875H18.5194C18.286 17.1875 18.0681 17.0726 17.9386 16.8814L17.2153 15.8125L16.0775 14.1313C15.7683 13.6745 16.1008 13.0625 16.6582 13.0625H18.1458H37.6875C38.073 13.0625 38.3854 12.7547 38.3854 12.375V8.9375V5.5C38.3854 5.12031 38.6978 4.8125 39.0833 4.8125H48.1562C48.5418 4.8125 48.8542 5.12031 48.8542 5.5V8.25Z" fill="#C34C40"/>
</g>
<defs>
<clipPath id="clip0_1_59">
<rect width="67" height="66" fill="white"/>
</clipPath>
</defs>
</svg>